<svg xmlns="http://www.w3.org/2000/svg" viewBox="0 0 1000 480" role="img" aria-label="gd: test accuracy vs iterations">
<rect width="100%" height="100%" fill="white"/>
<g font-family="Arial,Microsoft YaHei,sans-serif" font-size="13" fill="#172b4d">
<text x="30" y="30" font-size="21">gd: test accuracy vs iterations</text>
<text x="15" y="53">accuracy</text>
<path d="M95,370.0 H740" stroke="#e0e5ec"/>
<text x="85" y="374.0" text-anchor="end">0.748</text>
<path d="M95,308.9999999999998 H740" stroke="#e0e5ec"/>
<text x="85" y="312.9999999999998" text-anchor="end">0.759</text>
<path d="M95,248.0000000000001 H740" stroke="#e0e5ec"/>
<text x="85" y="252.0000000000001" text-anchor="end">0.77</text>
<path d="M95,186.99999999999986 H740" stroke="#e0e5ec"/>
<text x="85" y="190.99999999999986" text-anchor="end">0.782</text>
<path d="M95,126.00000000000023 H740" stroke="#e0e5ec"/>
<text x="85" y="130.00000000000023" text-anchor="end">0.793</text>
<path d="M95,65.0 H740" stroke="#e0e5ec"/>
<text x="85" y="69.0" text-anchor="end">0.804</text>
<text transform="translate(95.0,395) rotate(18)" text-anchor="start">5</text>
<text transform="translate(244.23894748804466,395) rotate(18)" text-anchor="start">20</text>
<text transform="translate(417.5,395) rotate(18)" text-anchor="start">100</text>
<text transform="translate(590.7610525119553,395) rotate(18)" text-anchor="start">500</text>
<text transform="translate(740.0,395) rotate(18)" text-anchor="start">2000</text>
<polyline points="95.00,305.35 244.24,305.35 417.50,305.35 590.76,305.35 740.00,340.48" fill="none" stroke="#1764a0" stroke-width="2.5"/>
<circle cx="95.0" cy="305.3456221198158" r="4" fill="#1764a0"/>
<circle cx="244.23894748804466" cy="305.3456221198158" r="4" fill="#1764a0"/>
<circle cx="417.5" cy="305.3456221198158" r="4" fill="#1764a0"/>
<circle cx="590.7610525119553" cy="305.3456221198158" r="4" fill="#1764a0"/>
<circle cx="740.0" cy="340.4838709677418" r="4" fill="#1764a0"/>
<rect x="765" y="74" width="18" height="3" fill="#1764a0"/>
<text x="790" y="80">lr=0.001</text>
<polyline points="95.00,305.35 244.24,305.35 417.50,340.48 590.76,270.21 740.00,129.65" fill="none" stroke="#c74832" stroke-width="2.5"/>
<circle cx="95.0" cy="305.3456221198158" r="4" fill="#c74832"/>
<circle cx="244.23894748804466" cy="305.3456221198158" r="4" fill="#c74832"/>
<circle cx="417.5" cy="340.4838709677418" r="4" fill="#c74832"/>
<circle cx="590.7610525119553" cy="270.20737327188925" r="4" fill="#c74832"/>
<circle cx="740.0" cy="129.6543778801842" r="4" fill="#c74832"/>
<rect x="765" y="102" width="18" height="3" fill="#c74832"/>
<text x="790" y="108">lr=0.01</text>
<polyline points="95.00,305.35 244.24,340.48 417.50,94.52 590.76,129.65 740.00,129.65" fill="none" stroke="#258457" stroke-width="2.5"/>
<circle cx="95.0" cy="305.3456221198158" r="4" fill="#258457"/>
<circle cx="244.23894748804466" cy="340.4838709677418" r="4" fill="#258457"/>
<circle cx="417.5" cy="94.51612903225822" r="4" fill="#258457"/>
<circle cx="590.7610525119553" cy="129.6543778801842" r="4" fill="#258457"/>
<circle cx="740.0" cy="129.6543778801842" r="4" fill="#258457"/>
<rect x="765" y="130" width="18" height="3" fill="#258457"/>
<text x="790" y="136">lr=0.1</text>
<polyline points="95.00,270.21 244.24,129.65 417.50,129.65 590.76,129.65 740.00,129.65" fill="none" stroke="#8056a5" stroke-width="2.5"/>
<circle cx="95.0" cy="270.20737327188925" r="4" fill="#8056a5"/>
<circle cx="244.23894748804466" cy="129.6543778801842" r="4" fill="#8056a5"/>
<circle cx="417.5" cy="129.6543778801842" r="4" fill="#8056a5"/>
<circle cx="590.7610525119553" cy="129.6543778801842" r="4" fill="#8056a5"/>
<circle cx="740.0" cy="129.6543778801842" r="4" fill="#8056a5"/>
<rect x="765" y="158" width="18" height="3" fill="#8056a5"/>
<text x="790" y="164">lr=1.0</text></g></svg>