<svg xmlns="http://www.w3.org/2000/svg" viewBox="0 0 1000 480" role="img" aria-label="Raw dataset: mean">
<rect width="100%" height="100%" fill="white"/>
<g font-family="Arial,Microsoft YaHei,sans-serif" font-size="13" fill="#172b4d">
<text x="30" y="30" font-size="21">Raw dataset: mean</text>
<text x="15" y="53">Raw units</text>
<path d="M95,370.0 H740" stroke="#e0e5ec"/>
<text x="85" y="374.0" text-anchor="end">-14.1</text>
<path d="M95,309.0 H740" stroke="#e0e5ec"/>
<text x="85" y="313.0" text-anchor="end">15.8</text>
<path d="M95,248.0 H740" stroke="#e0e5ec"/>
<text x="85" y="252.0" text-anchor="end">45.7</text>
<path d="M95,186.99999999999997 H740" stroke="#e0e5ec"/>
<text x="85" y="190.99999999999997" text-anchor="end">75.6</text>
<path d="M95,126.0 H740" stroke="#e0e5ec"/>
<text x="85" y="130.0" text-anchor="end">105</text>
<path d="M95,65.0 H740" stroke="#e0e5ec"/>
<text x="85" y="69.0" text-anchor="end">135</text>
<text transform="translate(95.0,395) rotate(18)" text-anchor="start">Pregnancies</text>
<text transform="translate(175.625,395) rotate(18)" text-anchor="start">Glucose</text>
<text transform="translate(256.25,395) rotate(18)" text-anchor="start">BloodPress</text>
<text transform="translate(336.875,395) rotate(18)" text-anchor="start">SkinFold</text>
<text transform="translate(417.5,395) rotate(18)" text-anchor="start">Insulin</text>
<text transform="translate(498.125,395) rotate(18)" text-anchor="start">BMI</text>
<text transform="translate(578.75,395) rotate(18)" text-anchor="start">Pedigree</text>
<text transform="translate(659.375,395) rotate(18)" text-anchor="start">Age</text>
<text transform="translate(740.0,395) rotate(18)" text-anchor="start">Outcome</text>
<polyline points="95.00,333.35 175.62,94.52 256.25,200.19 336.88,299.29 417.50,178.37 498.12,275.92 578.75,340.23 659.38,273.37 740.00,340.48" fill="none" stroke="#1764a0" stroke-width="2.5"/>
<circle cx="95.0" cy="333.35025117171074" r="4" fill="#1764a0"/>
<circle cx="175.625" cy="94.51612903225805" r="4" fill="#1764a0"/>
<circle cx="256.25" cy="200.1893483124613" r="4" fill="#1764a0"/>
<circle cx="336.875" cy="299.29219822373153" r="4" fill="#1764a0"/>
<circle cx="417.5" cy="178.36870794568128" r="4" fill="#1764a0"/>
<circle cx="498.125" cy="275.91650844666583" r="4" fill="#1764a0"/>
<circle cx="578.75" cy="340.2330624603434" r="4" fill="#1764a0"/>
<circle cx="659.375" cy="273.3693943690289" r="4" fill="#1764a0"/>
<circle cx="740.0" cy="340.48387096774195" r="4" fill="#1764a0"/>
<rect x="765" y="74" width="18" height="3" fill="#1764a0"/>
<text x="790" y="80">mean</text></g></svg>